<svg width="70" height="70" viewBox="0 0 70 70" fill="none" xmlns="http://www.w3.org/2000/svg">
<path d="M29.9509 0.085574C13.4351 0.085574 0 13.5207 0 30.0365C0 46.5522 13.4351 59.9874 29.9509 59.9874C34.9998 59.9874 39.963 58.7893 44.1562 56.4788C44.492 56.883 44.8644 57.2554 45.2686 57.5913L53.826 66.1487C54.6162 67.0378 55.5797 67.756 56.6575 68.2593C57.7353 68.7625 58.9046 69.0402 60.0936 69.0752C61.2826 69.1102 62.4661 68.9018 63.5717 68.4628C64.6772 68.0238 65.6813 67.3635 66.5224 66.5224C67.3635 65.6813 68.0238 64.6772 68.4628 63.5717C68.9018 62.4661 69.1102 61.2826 69.0752 60.0936C69.0402 58.9046 68.7625 57.7353 68.2593 56.6575C67.756 55.5798 67.0378 54.6162 66.1487 53.826L57.5913 45.2686C57.1744 44.8516 56.7156 44.4788 56.2221 44.1562C58.5326 39.963 59.9874 35.0853 59.9874 29.9509C59.9874 13.4351 46.5522 0 30.0365 0L29.9509 0.085574ZM29.9509 8.64297C41.8457 8.64297 51.3444 18.1417 51.3444 30.0365C51.3444 35.6843 49.2906 40.9044 45.6965 44.7552C45.6109 44.8408 45.5254 44.9263 45.4398 45.0119C45.0356 45.3478 44.6632 45.7202 44.3273 46.1244C40.5621 49.5473 35.4276 51.5155 29.8653 51.5155C17.9705 51.5155 8.47182 42.0168 8.47182 30.122C8.47182 18.2273 17.9705 8.72854 29.8653 8.72854L29.9509 8.64297Z" fill="black"/>
</svg>
